# xmcd
#
# Track frame offsets: 
#        150
#        17836
#        35028
#        47765
#        62709
#        77100
#        92327
#        108838
#        129156
#        144060
#        158898
#        173186
#
# Disc length: 2445 seconds
#
# Revision: 0
# Processed by: cddbd v1.5.2PL0 Copyright (c) Steve Scherf et al.
# Submitted via: ExactAudioCopy v0.99pb4
#
DISCID=8e098b0c
DTITLE=ยอดรัก สลักใจ - ปัดฝุ่น รุ่นพิเศษ  5+1
DYEAR=2008
DGENRE=Country
TTITLE0=ล่องเรือหารัก
TTITLE1=คนหัวใจโทรม
TTITLE2=คาถามหานิยม
TTITLE3=ยิ้มให้คุณ
TTITLE4=สุขเถิดที่รัก
TTITLE5=เล่ห์รัก
TTITLE6=วอนรัก
TTITLE7=อยู่กับยาย
TTITLE8=หนุ่มชาวนา
TTITLE9=สาวชาวแฟล็ต
TTITLE10=สวยไม่ใช่เล่น
TTITLE11=พบกันที่ไหนดี
EXTD=
EXTT0=
EXTT1=
EXTT2=
EXTT3=
EXTT4=
EXTT5=
EXTT6=
EXTT7=
EXTT8=
EXTT9=
EXTT10=
EXTT11=
PLAYORDER=
